<svg xmlns="http://www.w3.org/2000/svg" width="180.075" height="53" viewBox="0 0 180.075 53">
  <g id="logo_BGC" data-name="logo BGC" transform="translate(-327.327 -255.786)">
    <g id="Group_8" data-name="Group 8" transform="translate(378.74 255.786)">
      <path id="Path_13" data-name="Path 13" d="M508.89,278.959v9.084h11.261c-2.153,4.709-7.079,7.668-13.281,7.668-8.538,0-14.323-5.427-14.323-13.282,0-7.426,5.371-13.567,14.323-13.567a14.788,14.788,0,0,1,10.37,3.841l16.114-5.368c-5.6-7.276-15.34-11.548-26.415-11.548-17.343,0-31.42,10.473-31.42,26.553,0,16.5,14.078,26.447,31.42,26.447s31.42-9.944,31.42-26.447a26.389,26.389,0,0,0-.215-3.38Z" transform="translate(-475.518 -255.786)" fill="#1946ba"/>
    </g>
    <path id="Path_14" data-name="Path 14" d="M357.1,309.486H327.327V258.073h25.727c11.477.105,22.845,2.75,22.845,14.281a10.441,10.441,0,0,1-7.87,10.367v.423c6.667,1.9,10.712,6.03,10.712,12.166C378.741,305.678,367.7,309.38,357.1,309.486Zm-8.168-41.7h-5.846v11.352h5.846c4.524-.162,9.048-.973,9.048-5.838C357.978,268.274,353.286,267.787,348.93,267.787Zm.161,19.03h-6.007v12.955h6.172c5.123-.16,11.4-.96,11.4-6.557S354.213,286.977,349.091,286.817Z" transform="translate(0 -1.494)" fill="#1946ba"/>
    <path id="Path_15" data-name="Path 15" d="M697.193,295.71h-.137c-8.538,0-14.323-5.427-14.323-13.282,0-7.426,5.371-13.567,14.323-13.567h.137c6.927,0,11.708,3.679,13.517,8.784h17.412c-2.457-13.394-15.407-21.86-31-21.86-17.343,0-31.42,10.473-31.42,26.553,0,16.5,14.077,26.447,31.42,26.447,16.27,0,29.666-8.753,31.26-23.463H711.235C709.985,291.585,704.636,295.71,697.193,295.71Z" transform="translate(-220.982)" fill="#1946ba"/>
  </g>
</svg>
